<svg version="1.1" id="Layer_1" xmlns="http://www.w3.org/2000/svg" xmlns:xlink="http://www.w3.org/1999/xlink" x="0px" y="0px" viewBox="0 0 1024 1024">
		<path fill="#EE2C43" d="M454.483,437.058c0,0-40.39-35.185-72.105-3.469c-31.714,31.716-71.607,69.627-71.607,69.627
			s-8.842,7.432-1.324,14.949c7.519,7.516,53.025,53.026,53.025,53.026s-11.808-30.313,5.287-47.41
			C384.855,506.684,454.483,437.058,454.483,437.058z"/>

				<path fill="#2B3990" d="M377.063,531.002c2.41-2.41,5.889-5.889,10.043-10.042l74.018,70.315c0,0-42.495,33.821-74.334,1.981
					l-7.628-7.569C371.973,579.217,360.51,547.555,377.063,531.002z"/>

		<path fill="#21317F" d="M377.063,531.002c2.41-2.41,5.889-5.889,10.043-10.042l9.658,9.173c-1.603,1.603-3.016,3.017-4.172,4.172
			c-16.552,16.553-5.091,48.215,2.098,54.686l7.628,7.569c4.847,4.848,9.944,8.159,15.099,10.313
			c-10.197-0.313-20.907-3.894-30.628-13.615l-7.628-7.569C371.973,579.217,360.51,547.555,377.063,531.002z"/>
		<path fill="#DB1D3D" d="M351.073,510.072c0,0,35.764-38.325,57.817-60.378s45.593-12.636,45.593-12.636
			s-69.627,69.626-86.724,86.723c-17.095,17.097-5.287,47.41-5.287,47.41C328.278,536.17,351.073,510.072,351.073,510.072z"/>
		<path fill="#2B3990" d="M451.1,478.02h8.499v60.229h20.648v7.75H451.1V478.02z"/>
		<path fill="#2B3990" d="M503.669,502.543c4.139,0,7.925,1.012,11.359,3.039c3.435,2.025,6.157,4.77,8.168,8.231
			c2.01,3.463,3.016,7.22,3.016,11.271c0,3.904-0.998,7.634-2.994,11.184c-2.084,3.463-4.842,6.164-8.276,8.101
			c-3.494,2.055-7.251,3.083-11.272,3.083c-4.021,0-7.778-1.028-11.271-3.083c-3.463-1.937-6.192-4.638-8.188-8.101
			c-2.056-3.346-3.083-7.072-3.083-11.184c0-4.138,1.027-7.924,3.083-11.359c2.054-3.432,4.783-6.147,8.188-8.143
			C495.833,503.556,499.59,502.543,503.669,502.543z M503.669,510.292c-2.701,0-5.144,0.667-7.331,2.004
			c-2.187,1.334-3.926,3.132-5.217,5.392c-1.321,2.229-1.981,4.696-1.981,7.396c0,2.614,0.66,5.049,1.981,7.309
			c1.204,2.144,2.979,3.919,5.328,5.328c2.23,1.321,4.638,1.98,7.22,1.98c2.554,0,4.96-0.659,7.221-1.98
			c2.172-1.379,3.918-3.155,5.239-5.328c1.321-2.23,1.98-4.667,1.98-7.309c0-2.67-0.659-5.136-1.98-7.396
			c-1.38-2.289-3.126-4.095-5.239-5.415C508.718,510.952,506.312,510.292,503.669,510.292z"/>
		<path fill="#2B3990" d="M564.913,511.305v-7.617h8.101v42.31c0,6.633-1.057,11.799-3.17,15.498
			c-2.055,3.522-4.579,5.871-7.572,7.045c-2.91,1.086-6.098,1.628-9.564,1.628c-4.085,0-7.698-0.807-10.843-2.422
			c-3.027-1.495-5.423-3.728-7.185-6.692c-1.705-2.876-2.557-6.179-2.557-9.906h8.178c0,2.906,0.866,5.577,2.598,8.015
			c1.731,2.523,5.254,3.786,10.567,3.786c3.727,0,6.545-1.174,8.453-3.522c1.995-2.437,2.994-5.915,2.994-10.435v-9.863
			c-0.324,0.471-0.646,0.947-0.97,1.431c-0.322,0.485-0.602,0.919-0.836,1.3c-0.733,1.086-1.556,1.98-2.465,2.686
			c-0.971,0.822-2.353,1.513-4.145,2.07c-1.765,0.557-3.955,0.836-6.57,0.836c-3.763,0-7.173-0.969-10.229-2.906
			c-1.588-1.058-2.946-2.259-4.078-3.61c-1.132-1.35-2.109-2.906-2.933-4.667c-1.705-3.493-2.557-7.588-2.557-12.284
			c0-2.494,0.426-4.99,1.279-7.484c0.794-2.523,2.06-4.827,3.795-6.911c1.766-2.114,3.84-3.801,6.222-5.063
			c2.324-1.232,5.104-1.893,8.34-1.981c2.907,0,5.694,0.72,8.366,2.158C560.744,506.081,563.004,508.283,564.913,511.305z
			 M565.441,524.556c-0.088-3.315-0.808-6.09-2.157-8.32c-1.351-2.23-3.067-3.874-5.151-4.931c-1.997-1.026-4.007-1.541-6.032-1.541
			c-2.847,0-5.313,0.69-7.396,2.069c-2.085,1.379-3.654,3.154-4.712,5.327c-1.027,2.171-1.585,4.563-1.672,7.176
			c0,2.701,0.498,5.269,1.497,7.706c0.997,2.378,2.479,4.329,4.446,5.855c1.938,1.468,4.373,2.245,7.309,2.334
			c2.642,0,5.033-0.632,7.177-1.895c2.083-1.35,3.712-3.185,4.887-5.503C564.839,530.485,565.441,527.726,565.441,524.556z"/>
		<path fill="#2B3990" d="M589.525,488.19l0.176-0.175c1.35,0,2.407,0.425,3.17,1.276c0.793,0.881,1.189,1.967,1.189,3.257
			c0,1.381-0.434,2.459-1.299,3.236c-0.866,0.779-1.916,1.167-3.148,1.167c-1.351,0-2.437-0.455-3.258-1.364
			c-0.764-0.851-1.145-1.938-1.145-3.259c0-1.233,0.425-2.215,1.276-2.95C587.25,488.587,588.263,488.19,589.525,488.19z
			 M585.387,503.513h8.102v42.309h-8.102V503.513z"/>
		<path fill="#2B3990" d="M623.411,513.461c-1.265-2.464-3.101-3.697-5.511-3.697c-1.265,0-2.293,0.382-3.086,1.146
			c-0.824,0.88-1.235,1.936-1.235,3.168c0.088,1.673,1.352,3.112,3.792,4.314c2.351,1.233,4.732,2.407,7.144,3.522
			c2.381,1.087,4.395,2.525,6.04,4.316c1.705,1.79,2.603,4.329,2.69,7.615c0,2.261-0.633,4.419-1.896,6.473
			c-1.204,2.024-2.881,3.743-5.025,5.152c-2.206,1.319-4.528,1.98-6.968,1.98c-4.263,0-7.599-0.939-10.01-2.817
			c-2.616-1.938-4.396-4.124-5.335-6.561l7.011-3.348c0.764,1.733,1.822,3.083,3.174,4.053c1.264,0.939,2.734,1.453,4.411,1.54
			c1.616-0.087,2.983-0.573,4.1-1.453c1.234-0.938,2.015-2.142,2.337-3.609c0-1.263-0.309-2.304-0.926-3.127
			c-0.646-1.057-1.426-1.878-2.337-2.465c-0.853-0.617-1.91-1.277-3.174-1.98c-0.766-0.412-1.368-0.728-1.81-0.947
			c-0.44-0.22-0.882-0.447-1.322-0.684c-3.41-1.702-5.85-3.463-7.319-5.283c-1.44-1.789-2.161-3.844-2.161-6.164
			c0.088-1.937,0.632-3.829,1.632-5.678c0.971-1.907,2.41-3.434,4.321-4.579c1.91-1.204,4.071-1.805,6.481-1.805
			c5.085,0,8.98,2.465,11.686,7.397L623.411,513.461z"/>
		<path fill="#2B3990" d="M642.271,503.688v-16.115h8.102v16.115h8.101v7.661h-8.101v34.649h-8.102v-34.649h-4.446v-7.661H642.271z"
			/>
		<path fill="#2B3990" d="M668.775,488.19l0.177-0.175c1.35,0,2.406,0.425,3.17,1.276c0.793,0.881,1.188,1.967,1.188,3.257
			c0,1.381-0.434,2.459-1.299,3.236c-0.865,0.779-1.915,1.167-3.148,1.167c-1.351,0-2.436-0.455-3.257-1.364
			c-0.765-0.851-1.145-1.938-1.145-3.259c0-1.233,0.424-2.215,1.276-2.95C666.5,488.587,667.513,488.19,668.775,488.19z
			 M664.637,503.513h8.102v42.309h-8.102V503.513z"/>
		<path fill="#2B3990" d="M716.722,534.375v10.346c-3.379,1.702-7.2,2.555-11.461,2.555c-4.086,0-7.885-0.941-11.396-2.818
			c-3.512-1.878-6.297-4.49-8.354-7.837c-2.028-3.288-3.087-7.045-3.175-11.271c0-4.228,1.028-8.043,3.086-11.447
			c2.028-3.463,4.819-6.193,8.376-8.189c3.468-1.996,7.289-2.993,11.463-2.993c4.408,0,8.229,0.866,11.461,2.597v10.566
			c-1.555-1.937-3.368-3.382-5.437-4.336c-2.069-0.953-4.396-1.431-6.979-1.431c-4.138,0.176-7.448,1.769-9.928,4.775
			c-2.48,3.009-3.765,6.23-3.853,9.664c0,2.585,0.528,5.005,1.585,7.265c1.086,2.378,2.715,4.271,4.888,5.681
			c2.142,1.497,4.667,2.289,7.573,2.378c2.317,0,4.358-0.368,6.119-1.101C712.334,538.221,714.345,536.753,716.722,534.375z"/>
		<path fill="#2B3990" d="M742.42,513.461c-1.265-2.464-3.102-3.697-5.512-3.697c-1.265,0-2.293,0.382-3.086,1.146
			c-0.824,0.88-1.235,1.936-1.235,3.168c0.088,1.673,1.352,3.112,3.792,4.314c2.352,1.233,4.732,2.407,7.144,3.522
			c2.381,1.087,4.395,2.525,6.041,4.316c1.704,1.79,2.602,4.329,2.689,7.615c0,2.261-0.632,4.419-1.896,6.473
			c-1.205,2.024-2.881,3.743-5.026,5.152c-2.205,1.319-4.527,1.98-6.968,1.98c-4.262,0-7.598-0.939-10.009-2.817
			c-2.617-1.938-4.396-4.124-5.336-6.561l7.011-3.348c0.765,1.733,1.822,3.083,3.175,4.053c1.264,0.939,2.733,1.453,4.41,1.54
			c1.616-0.087,2.983-0.573,4.101-1.453c1.233-0.938,2.014-2.142,2.337-3.609c0-1.263-0.31-2.304-0.926-3.127
			c-0.647-1.057-1.427-1.878-2.337-2.465c-0.854-0.617-1.911-1.277-3.175-1.98c-0.766-0.412-1.368-0.728-1.81-0.947
			c-0.439-0.22-0.881-0.447-1.321-0.684c-3.411-1.702-5.851-3.463-7.32-5.283c-1.44-1.789-2.16-3.844-2.16-6.164
			c0.087-1.937,0.631-3.829,1.632-5.678c0.97-1.907,2.41-3.434,4.32-4.579c1.911-1.204,4.072-1.805,6.482-1.805
			c5.085,0,8.979,2.465,11.686,7.397L742.42,513.461z"/>
</svg>
